<svg width="200" height="60" viewBox="0 0 200 60" fill="none" xmlns="http://www.w3.org/2000/svg">
  <!-- Zorro estilizado mirando a la derecha -->
  <g id="fox-icon">
    <!-- Cabeza del zorro -->
    <path d="M12 20 C12 15, 15 12, 20 12 L28 12 C33 12, 36 15, 36 20 L36 28 C36 33, 33 36, 28 36 L20 36 C15 36, 12 33, 12 28 Z" fill="#0D47A1"/>
    <!-- Orejas -->
    <path d="M16 8 L20 4 L24 8 L22 12 L18 12 Z" fill="#0D47A1"/>
    <path d="M24 8 L28 4 L32 8 L30 12 L26 12 Z" fill="#0D47A1"/>
    <!-- Ojos -->
    <circle cx="20" cy="22" r="2" fill="#FBC02D"/>
    <circle cx="28" cy="22" r="2" fill="#FBC02D"/>
    <!-- Nariz -->
    <path d="M24 26 L22 28 L24 30 Z" fill="#FBC02D"/>
    <!-- Cuerpo -->
    <path d="M36 24 L44 24 L48 32 L44 40 L36 40 Z" fill="#0D47A1"/>
    <!-- Cola -->
    <path d="M44 32 L52 28 L56 36 L52 44 L44 40 Z" fill="#0D47A1"/>
    <circle cx="54" cy="34" r="3" fill="#FBC02D"/>
  </g>
  
  <!-- Texto Zaltyko -->
  <text x="65" y="38" font-family="Poppins, sans-serif" font-size="28" font-weight="700" fill="#0D47A1" letter-spacing="0.5px">Zaltyko</text>
</svg>

